<svg xmlns="http://www.w3.org/2000/svg" xmlns:xlink="http://www.w3.org/1999/xlink" width="500" zoomAndPan="magnify" viewBox="0 0 375 374.999991" height="500" preserveAspectRatio="xMidYMid meet" version="1.0"><defs><clipPath id="0b6297d425"><path d="M 2 15.703125 L 375 15.703125 L 375 261 L 2 261 Z M 2 15.703125 " clip-rule="nonzero"/></clipPath><clipPath id="d62f8040df"><path d="M 27 122 L 336 122 L 336 359.203125 L 27 359.203125 Z M 27 122 " clip-rule="nonzero"/></clipPath></defs><g clip-path="url(#0b6297d425)"><path fill="#00bc7d" d="M 73.585938 106.164062 C 73.585938 136.851562 81.441406 172.191406 147.90625 198.664062 C 129.363281 208.550781 110.601562 217.496094 91.621094 225.640625 C 84.132812 228.765625 76.566406 231.820312 69.003906 234.730469 C 59.699219 238.292969 50.390625 241.566406 40.9375 244.691406 C 33.15625 247.238281 7.414062 253.199219 17.304688 236.183594 C 22.976562 226.441406 32.28125 217.132812 41.371094 210.078125 L 41.371094 193.5 C 29.59375 204.335938 9.8125 220.550781 4.214844 235.601562 C 0.0703125 246.730469 2.394531 254.582031 12.359375 258.4375 C 23.484375 262.871094 41.589844 260.109375 63.84375 252.691406 C 73.660156 249.417969 84.347656 245.203125 95.546875 240.257812 C 117.363281 230.730469 141.289062 218.441406 165.429688 205.0625 C 187.828125 192.625 210.371094 179.171875 231.75 166.011719 C 281.632812 135.179688 324.683594 105.582031 342.136719 92.785156 L 342.425781 110.964844 C 352.824219 90.75 364.53125 72.132812 374.929688 51.84375 C 354.0625 57.226562 331.953125 60.933594 311.011719 66.316406 L 326.574219 76.640625 C 290.578125 106.238281 253.636719 133.871094 215.75 158.523438 C 208.84375 155.613281 201.28125 152.777344 193.136719 150.015625 C 171.246094 142.449219 131.761719 131.324219 131.761719 102.601562 C 131.761719 79.476562 157.285156 69.515625 177.210938 69.515625 C 218.660156 69.515625 234.222656 105.363281 244.183594 105.363281 C 255.308594 105.363281 276.035156 69.078125 276.035156 57.953125 C 276.035156 46.390625 235.019531 15.703125 177.210938 15.703125 C 96.273438 15.703125 73.585938 72.714844 73.585938 106.164062 Z M 73.585938 106.164062 " fill-opacity="1" fill-rule="evenodd"/></g><g clip-path="url(#d62f8040df)"><path fill="#00bc7d" d="M 202.296875 218.878906 C 217.132812 226.660156 229.421875 237.785156 229.421875 254.875 C 229.421875 279.597656 203.097656 292.6875 172.847656 292.6875 C 139.542969 292.6875 120.199219 280.46875 108.5625 265.5625 C 115.691406 262.582031 122.015625 259.671875 127.035156 257.492188 C 152.777344 246.074219 177.792969 233.203125 202.296875 218.878906 Z M 62.96875 270.726562 C 50.753906 272.980469 38.753906 272.90625 27.773438 268.328125 C 35.046875 279.378906 48.570312 281.488281 63.769531 279.378906 C 71.476562 333.410156 124.488281 359.296875 176.847656 359.296875 C 260.910156 359.296875 293.996094 302.285156 293.996094 256.035156 C 293.996094 231.3125 286.652344 205.570312 258.292969 182.882812 C 284.613281 164.339844 310.285156 144.195312 335.226562 122.378906 C 308.832031 142.015625 281.632812 160.996094 253.128906 178.957031 C 233.640625 191.316406 213.496094 203.171875 192.625 214.371094 C 170.957031 226.003906 148.558594 237.058594 125.070312 247.238281 C 118.164062 250.21875 110.746094 253.710938 102.964844 257.128906 C 90.09375 262.800781 76.351562 268.253906 62.96875 270.726562 Z M 62.96875 270.726562 " fill-opacity="1" fill-rule="evenodd"/></g></svg>